<svg width="512" height="512" viewBox="0 0 512 512" fill="none" xmlns="http://www.w3.org/2000/svg">
<path d="M364.845 90C323.847 90 291.798 120.896 262.786 160.143C222.918 109.353 189.576 90 149.676 90C68.3282 90 6 195.922 6 308.035C6 378.191 39.9227 422.44 96.7425 422.44C137.638 422.44 167.05 403.15 219.336 311.703C219.336 311.703 241.132 273.193 256.126 246.665C261.381 255.153 266.914 264.299 272.728 274.103L297.247 315.371C345.009 395.339 371.62 422.44 419.841 422.44C475.194 422.44 506 377.586 506 305.971C506 188.586 442.267 90 364.845 90ZM179.465 286.942C137.072 353.43 122.407 368.333 98.8048 368.333C74.5151 368.333 60.0788 346.997 60.0788 308.952C60.0788 227.561 100.638 144.337 148.988 144.337C175.171 144.337 197.051 159.466 230.566 207.471C198.742 256.311 179.465 286.942 179.465 286.942ZM339.459 278.572L310.144 229.654C302.21 216.745 294.586 204.862 287.271 194.006C313.693 153.204 335.487 132.873 361.408 132.873C415.258 132.873 458.337 212.2 458.337 309.64C458.337 346.781 446.179 368.333 420.986 368.333C396.841 368.333 385.306 352.377 339.459 278.572Z" fill="white"/>
</svg>
